<?xml version="1.0" encoding="utf-8"?>
<!-- Generator: Adobe Illustrator 21.0.2, SVG Export Plug-In . SVG Version: 6.00 Build 0)  -->
<svg version="1.1" id="CreativeIdeaLogo" xmlns="http://www.w3.org/2000/svg" xmlns:xlink="http://www.w3.org/1999/xlink" x="0px"
	 y="0px" viewBox="0 0 441 723" style="enable-background:new 0 0 441 723;" xml:space="preserve">
<style type="text/css">
	.st0{fill:#00A99D;}
	.st1{fill:#F7931E;}
	.st2{fill:none;stroke:#FBB03B;stroke-miterlimit:10;}
	.st3{fill:none;stroke:url(#SVGID_1_);stroke-miterlimit:1;}
	.st4{fill:none;}
	.st5{font-family:'MyriadPro-Regular';}
	.st6{font-size:84px;}
</style>
<g id="Layer_2">
</g>
<g id="XMLID_1_">
	<g>
		<path class="st0" d="M348.3,495.1c47,0,85.2,38.2,85.2,85.2s-38.2,85.2-85.2,85.2c-4.2,0-8.3-0.3-12.4-0.9
			c-19,28.9-49.2,47.7-83,47.7H118.5c-57.5,0-104.2-53.9-104.2-120.3v-88.2c0-4.8,3.9-8.8,8.8-8.8h163.3c14.4,0,25.9-3.1,33.5-8.9
			c5.6-4.3,8.8-10.1,8.8-16.3c0-11.1-10.4-23-29.6-23c-0.2,0-0.4,0-0.6,0c-15.5-1-27.2-6.1-35-15c-3.7-4.3-5.9-8.8-7.2-12.8
			c-1.3-3.6-2.1-7.6-2.1-11.7c0-0.2,0-0.3,0-0.5c-9.1-5.4-16.8-13-22.4-22h-4.7c-4.8,0-8.8-3.9-8.8-8.8c0-3.9,2.5-7.1,6-8.3
			c-1.1-3.9-1.8-7.9-2.1-12h-8.5c-4.9,0-8.8-3.9-8.8-8.8c0-4.8,3.9-8.8,8.8-8.8h8.3v-19.5V290c-1.9-1.2-5.8-2.9-8.9-4.3
			c-24.8-11-76.4-33.9-76.4-127.1c0-83.3,67.8-151.1,151.1-151.1s151.1,67.8,151.1,151.1c0,92-47,111.9-72.2,122.6
			c-5,2.1-11.7,5-13.1,6.7v30.8v19.5h8.3c4.8,0,8.8,3.9,8.8,8.8c0,4.8-3.9,8.8-8.8,8.8h-8.5c-0.3,4.1-1.1,8.1-2.1,12
			c3.5,1.2,6,4.4,6,8.3c0,4.8-3.9,8.8-8.8,8.8h-4.7c-5.6,9-13.3,16.6-22.4,22c0,0.2,0,0.3,0,0.5c0,9-3.6,17.3-9.4,23.3
			c22.3,4.9,34.2,22.5,34.2,39.1c0,9.4-3.5,18.1-10.1,25.2H348.3z M416,580.3c0-34.4-25.7-62.8-58.9-67.1v20.2
			c13,1.5,23.1,6.5,30.1,14.8c6.8,8.1,10.4,19.2,10.4,32.2c0,23-11.8,47.6-44.4,49.8c-0.3,0.8-0.6,1.6-0.8,2.3
			c-1.2,3.5-2.6,7.6-5.1,10.4c-0.7,1.7-1.4,3.4-2.2,5.1c1.1,0,2.1,0.1,3.2,0.1C385.6,648,416,617.6,416,580.3z M355.6,612.2
			c20-3,24.5-18.6,24.5-32c0-17.1-7.5-26.8-23-29.2v41C357.1,598.9,356.5,605.7,355.6,612.2z M339.5,592v-50.4v-29H31.9V592
			c0,56.7,38.9,102.7,86.7,102.7h134.3c29.1,0,54.9-17.1,70.6-43.2c0.1-0.4,0.3-0.7,0.5-1.1c3-5.1,5.7-10.6,7.9-16.3
			c0.1-0.2,0.2-0.5,0.3-0.7C336.9,620.8,339.5,606.8,339.5,592z M259.8,265c24.5-10.4,61.5-26.1,61.5-106.5
			C321.4,84.9,261.5,25,187.8,25C114.2,25,54.3,84.9,54.3,158.6c0,81.9,42.9,100.9,65.9,111.1c10.5,4.7,19.6,8.7,19.4,18.3v22h13.5
			c2.8-26.2,4.2-63.2,0.7-91.3c-8.5-2-16-4.8-22.4-8.4c-12.9-7.3-20.4-17.5-20.4-27.9c0-9.8,7.6-20.5,24.3-20.5
			c7.8,0,14.8,3.3,20.3,9.5c6.5,7.3,10.8,18.8,13.5,32.1c5.3,0.6,11.3,1,18.1,1c7.2,0,13.6-0.4,19.2-1.2
			c2.9-14.2,7.4-24.7,13.5-31.6c5.7-6.4,13-9.9,21-9.9c16.3,0,23.7,10.3,23.7,19.9c0,10.4-7.6,20.7-20.8,28.1
			c-6.3,3.6-13.7,6.4-22,8.4c-3.5,28.1-1.8,65.3,1.2,91.6h13v-22.2C236,275.2,247.6,270.3,259.8,265z M235.2,194.8
			c9.4-5.3,11.9-10.7,11.9-12.9c0-2.4-5.9-2.4-6.2-2.4c-3.1,0-5.5,1.2-7.9,3.9c-3.1,3.5-5.6,8.9-7.5,15.7
			C229.5,197.7,232.7,196.2,235.2,194.8z M236.1,338.3v-10.8h-96.4v10.8H236.1z M235.8,355.8h-95.8c0.4,4,1.4,7.9,2.8,11.5H233
			C234.4,363.7,235.3,359.8,235.8,355.8z M221.5,384.9h-67.4c3.7,3.6,8,6.6,12.7,8.9c0.2,0.1,0.3,0.1,0.5,0.2
			c2.4,1.1,4.9,2.1,7.4,2.8c0,0,0.1,0,0.1,0c0.7,0.2,1.5,0.4,2.2,0.6c0.2,0,0.3,0.1,0.5,0.1c0.6,0.1,1.2,0.3,1.9,0.4
			c0.2,0.1,0.5,0.1,0.7,0.1c0.6,0.1,1.1,0.2,1.7,0.2c0.3,0,0.6,0.1,0.9,0.1c0.6,0.1,1.2,0.1,1.7,0.1c0.3,0,0.6,0.1,0.8,0.1
			c0.9,0,1.7,0.1,2.6,0.1c0.9,0,1.7,0,2.6-0.1c0.3,0,0.6,0,0.8-0.1c0.6,0,1.1-0.1,1.7-0.1c0.3,0,0.6-0.1,0.9-0.1
			c0.6-0.1,1.1-0.1,1.7-0.2c0.2,0,0.5-0.1,0.7-0.1c0.6-0.1,1.3-0.2,1.9-0.4c0.2,0,0.3-0.1,0.5-0.1c0.8-0.2,1.5-0.4,2.2-0.6
			c0,0,0,0,0.1,0c2.5-0.7,5-1.6,7.4-2.8c0.2-0.1,0.3-0.1,0.5-0.2C213.6,391.5,217.8,388.5,221.5,384.9z M170.8,310h34.7
			c-1-9.6-2.9-30.2-3.1-53.1c-0.1-13.3,0.3-25.1,1.4-35.5c-5.3,0.5-10.8,0.8-16.6,0.8c-5.3,0-10.4-0.2-15.3-0.7
			C175.5,255.5,172.3,294.6,170.8,310z M202.2,414.6c-0.1,0-0.3,0-0.4,0.1c-0.8,0.2-1.6,0.3-2.4,0.5c-0.4,0.1-0.7,0.1-1.1,0.2
			c-0.8,0.1-1.6,0.2-2.5,0.3c-0.3,0-0.7,0.1-1,0.1c-1,0.1-2,0.2-3,0.2c-0.2,0-0.3,0-0.5,0c-1.2,0.1-2.4,0.1-3.6,0.1
			c-1.2,0-2.4,0-3.6-0.1c-0.2,0-0.3,0-0.5,0c-1-0.1-2-0.1-3-0.2c-0.3,0-0.6-0.1-1-0.1c-0.8-0.1-1.7-0.2-2.5-0.3
			c-0.4-0.1-0.7-0.1-1.1-0.2c-0.8-0.1-1.6-0.3-2.4-0.5c-0.1,0-0.3-0.1-0.4-0.1c2.6,5.3,8.1,8.9,14.4,8.9
			C194.1,423.5,199.6,419.9,202.2,414.6z M150.2,199.5c-1.9-7.1-4.5-12.7-7.7-16.3c-2.9-3.2-5.4-3.6-7.2-3.6c-0.7,0-6.7,0.1-6.7,2.9
			c0,2.9,3.6,8.1,11.5,12.6C142.6,196.5,146,198.1,150.2,199.5z"/>
		<path class="st1" d="M108.5,522.5h219C327.5,603.5,326.9,538.9,108.5,522.5z"/>
		<path class="st0" d="M313.8,613.3c4.8,0.3,8.5,4.5,8.2,9.3c-1.6,23.2-13.1,41.4-29.5,46.3c-0.8,0.2-1.7,0.4-2.5,0.4
			c-3.8,0-7.3-2.5-8.4-6.3c-1.4-4.6,1.3-9.5,5.9-10.9c7.3-2.2,15.8-12.7,17-30.7C304.8,616.6,308.9,613,313.8,613.3z"/>
		<path class="st1" d="M311.6,168.7c3.5,14.6-2.2,35-15.4,54.6c-13.6,20.2-31.4,34.3-48.9,38.5c-0.7,0.2-1.4,0.2-2.1,0.2
			c-4,0-7.6-2.7-8.5-6.7c-1.1-4.7,1.8-9.4,6.5-10.6c13.1-3.2,27.5-14.8,38.5-31.2c10-14.9,15.2-31.3,13-40.8
			c-1.1-4.7,1.8-9.4,6.5-10.6C305.8,161.1,310.5,164,311.6,168.7z"/>
		<path class="st0" d="M281.6,668.2c3,3.8,2.2,9.3-1.6,12.3c-7.2,5.6-14.6,7.1-21.1,7.1c-2.8,0-5.4-0.3-7.8-0.6
			c-4.8-0.7-8.1-5.1-7.4-9.9c0.7-4.8,5.2-8.1,9.9-7.4c7.2,1,11.4,0.2,15.6-3C273.2,663.6,278.7,664.3,281.6,668.2z"/>
		<path class="st1" d="M193.8,41c4.4,2,6.3,7.2,4.2,11.6c-1.5,3.2-4.7,5.1-8,5.1c-1.2,0-2.5-0.3-3.7-0.8c-2.4-1-11.7-0.7-19.6,0.7
			c-4.8,0.8-9.3-2.4-10.1-7.2c-0.8-4.8,2.4-9.3,7.2-10.1C168.7,39.4,185.3,37,193.8,41z"/>
		<path class="st1" d="M142.1,46.3c4.8,0,8.8,3.9,8.8,8.8c0,4.8-3.9,8.8-8.8,8.8c-6.9,0-21.6,8.4-35.4,23.9
			c-14.9,16.8-23.5,35.5-23.5,51.5c0,4.8-3.9,8.8-8.8,8.8c-4.8,0-8.8-3.9-8.8-8.8c0-20.2,10.2-43.2,27.9-63.1
			C106.4,61.7,125.9,46.3,142.1,46.3z"/>
		<path class="st0" d="M64.8,619.2c3.6,3.3,3.8,8.8,0.5,12.4c-1.7,1.9-4.1,2.8-6.4,2.8c-2.1,0-4.3-0.8-6-2.3
			c-10.5-9.8-11.1-32.6-11.1-37.1v-37c0-4.8,3.9-8.8,8.8-8.8s8.8,3.9,8.8,8.8l3.2,36.2c0,1,0.1,1.9,0.2,2.9L64.8,619.2z"/>
		<path class="st0" d="M59.3,526.8v7.3c0,4.8-3.9,8.8-8.8,8.8s-8.8-3.9-8.8-8.8v-7.3c0-4.8,3.9-8.8,8.8-8.8S59.3,522,59.3,526.8z"/>
	</g>
	<g>
		<path class="st2" d="M348.3,495.1H236.1c6.5-7.1,10.1-15.8,10.1-25.2c0-16.7-11.9-34.2-34.2-39.1c5.8-6.1,9.4-14.3,9.4-23.3
			c0-0.2,0-0.3,0-0.5c9.1-5.4,16.8-13,22.4-22h4.7c4.8,0,8.8-3.9,8.8-8.8c0-3.9-2.5-7.1-6-8.3c1.1-3.9,1.8-7.9,2.1-12h8.5
			c4.8,0,8.8-3.9,8.8-8.8c0-4.8-3.9-8.8-8.8-8.8h-8.3v-19.5v-30.8c1.4-1.8,8.1-4.6,13.1-6.7c25.2-10.7,72.2-30.7,72.2-122.6
			c0-83.3-67.8-151.1-151.1-151.1S36.8,75.2,36.8,158.6c0,93.3,51.6,116.1,76.4,127.1c3.2,1.4,7,3.1,8.9,4.3v28.8v19.5h-8.3
			c-4.9,0-8.8,3.9-8.8,8.8c0,4.8,3.9,8.8,8.8,8.8h8.5c0.3,4.1,1.1,8.1,2.1,12c-3.5,1.2-6,4.4-6,8.3c0,4.8,3.9,8.8,8.8,8.8h4.7
			c5.6,9,13.2,16.6,22.4,22c0,0.2,0,0.3,0,0.5c0,4.1,0.7,8,2.1,11.7c1.3,4,3.5,8.6,7.2,12.8c7.8,8.9,19.5,14,35,15
			c0.2,0,0.4,0,0.6,0c19.2,0,29.6,11.9,29.6,23c0,6.2-3.1,12-8.8,16.3c-7.5,5.8-19.1,8.9-33.5,8.9H23.1c-4.8,0-8.8,3.9-8.8,8.8V592
			c0,66.3,46.8,120.3,104.2,120.3h134.3c33.9,0,64-18.7,83-47.7c4.1,0.6,8.3,0.9,12.4,0.9c47,0,85.2-38.2,85.2-85.2
			S395.3,495.1,348.3,495.1z"/>
		<path class="st2" d="M202.2,414.6c-2.6,5.3-8.1,8.9-14.4,8.9c-6.3,0-11.8-3.6-14.4-8.9c0.1,0,0.3,0,0.4,0.1
			c0.8,0.2,1.6,0.3,2.4,0.5c0.4,0.1,0.7,0.1,1.1,0.2c0.8,0.1,1.7,0.2,2.5,0.3c0.3,0,0.6,0.1,1,0.1c1,0.1,2,0.2,3,0.2
			c0.2,0,0.3,0,0.5,0c1.2,0.1,2.4,0.1,3.6,0.1c1.2,0,2.4,0,3.6-0.1c0.2,0,0.3,0,0.5,0c1-0.1,2-0.1,3-0.2c0.3,0,0.6-0.1,1-0.1
			c0.8-0.1,1.7-0.2,2.5-0.3c0.4-0.1,0.7-0.1,1.1-0.2c0.8-0.1,1.6-0.3,2.4-0.5C202,414.6,202.1,414.6,202.2,414.6z"/>
		<path class="st2" d="M120.2,269.7c-23.1-10.2-65.9-29.2-65.9-111.1C54.3,84.9,114.2,25,187.8,25c73.6,0,133.5,59.9,133.5,133.5
			c0,80.4-37,96.1-61.5,106.5c-12.3,5.2-23.9,10.1-23.8,22.7V310h-13c-3-26.2-4.7-63.5-1.2-91.6c8.3-2,15.7-4.8,22-8.4
			c13.2-7.4,20.8-17.7,20.8-28.1c0-9.6-7.4-19.9-23.7-19.9c-8.1,0-15.3,3.4-21,9.9c-6.1,6.9-10.6,17.4-13.5,31.6
			c-5.6,0.7-12,1.2-19.2,1.2c-6.8,0-12.8-0.4-18.1-1c-2.7-13.4-7-24.9-13.5-32.1c-5.5-6.2-12.6-9.5-20.3-9.5
			c-16.7,0-24.3,10.6-24.3,20.5c0,10.4,7.4,20.6,20.4,27.9c6.4,3.6,13.9,6.4,22.4,8.4c3.5,28.1,2.1,65.1-0.7,91.3h-13.5v-22
			C139.8,278.4,130.8,274.3,120.2,269.7z"/>
		<path class="st2" d="M171.9,221.5c4.9,0.4,10,0.7,15.3,0.7c5.8,0,11.3-0.3,16.6-0.8c-1,10.4-1.5,22.2-1.4,35.5
			c0.2,22.8,2,43.4,3.1,53.1h-34.7C172.3,294.6,175.5,255.5,171.9,221.5z"/>
		<path class="st2" d="M225.6,199.1c1.9-6.7,4.4-12.1,7.5-15.7c2.4-2.7,4.8-3.9,7.9-3.9c0.2,0,6.2,0,6.2,2.4
			c0,2.1-2.5,7.6-11.9,12.9C232.7,196.2,229.5,197.7,225.6,199.1z"/>
		<path class="st2" d="M150.2,199.5c-4.2-1.4-7.6-3-10.2-4.4c-7.9-4.4-11.5-9.7-11.5-12.6c0-2.8,6-2.9,6.7-2.9
			c1.9,0,4.4,0.4,7.2,3.6C145.7,186.7,148.3,192.4,150.2,199.5z"/>
		<rect x="139.6" y="327.5" class="st2" width="96.4" height="10.8"/>
		<path class="st2" d="M235.8,355.8c-0.4,4-1.4,7.9-2.8,11.5h-90.3c-1.4-3.6-2.3-7.5-2.8-11.5H235.8z"/>
		<path class="st2" d="M221.5,384.9c-3.7,3.6-8,6.6-12.7,8.9c-0.2,0.1-0.4,0.1-0.5,0.2c-2.4,1.1-4.9,2.1-7.4,2.8c0,0,0,0-0.1,0
			c-0.7,0.2-1.5,0.4-2.2,0.6c-0.1,0-0.3,0.1-0.5,0.1c-0.6,0.1-1.2,0.3-1.9,0.4c-0.2,0.1-0.5,0.1-0.7,0.1c-0.6,0.1-1.1,0.2-1.7,0.2
			c-0.3,0-0.6,0.1-0.9,0.1c-0.6,0.1-1.1,0.1-1.7,0.1c-0.3,0-0.6,0.1-0.8,0.1c-0.9,0-1.7,0.1-2.6,0.1c-0.9,0-1.7,0-2.6-0.1
			c-0.3,0-0.6,0-0.8-0.1c-0.6,0-1.2-0.1-1.7-0.1c-0.3,0-0.6-0.1-0.9-0.1c-0.6-0.1-1.1-0.1-1.7-0.2c-0.2,0-0.5-0.1-0.7-0.1
			c-0.6-0.1-1.2-0.2-1.9-0.4c-0.2,0-0.3-0.1-0.5-0.1c-0.8-0.2-1.5-0.4-2.2-0.6c0,0-0.1,0-0.1,0c-2.5-0.7-5-1.6-7.4-2.8
			c-0.2-0.1-0.3-0.1-0.5-0.2c-4.7-2.3-9-5.3-12.7-8.9H221.5z"/>
		<path class="st2" d="M357.1,551c15.5,2.5,23,12.1,23,29.2c0,13.3-4.5,28.9-24.5,32c1-6.6,1.5-13.3,1.5-20.2V551z"/>
		<path class="st2" d="M252.9,694.8H118.5c-47.8,0-86.7-46.1-86.7-102.7v-79.4h307.7v29V592c0,14.7-2.6,28.8-7.4,41.4
			c-0.1,0.2-0.2,0.5-0.3,0.7c-2.2,5.7-4.8,11.2-7.9,16.3c-0.2,0.4-0.4,0.7-0.5,1.1C307.7,677.7,281.9,694.8,252.9,694.8z"/>
		<path class="st2" d="M348.3,648c-1.1,0-2.1,0-3.2-0.1c0.8-1.7,1.5-3.4,2.2-5.1c2.5-2.8,3.9-7,5.1-10.4c0.2-0.6,0.5-1.5,0.8-2.3
			c32.6-2.2,44.4-26.8,44.4-49.8c0-13-3.6-24.1-10.4-32.2c-7-8.3-17.2-13.3-30.1-14.8v-20.2c33.2,4.3,58.9,32.8,58.9,67.1
			C416,617.6,385.6,648,348.3,648z"/>
		<path class="st2" d="M269.3,666.6c-4.2,3.2-8.4,4-15.6,3c-4.8-0.7-9.2,2.6-9.9,7.4c-0.7,4.8,2.6,9.2,7.4,9.9
			c2.4,0.4,5,0.6,7.8,0.6c6.5,0,13.9-1.5,21.1-7.1c3.8-3,4.6-8.5,1.6-12.3C278.7,664.3,273.2,663.6,269.3,666.6z"/>
		<path class="st2" d="M313.8,613.3c-4.8-0.3-9,3.3-9.3,8.2c-1.2,17.9-9.6,28.5-17,30.7c-4.6,1.4-7.3,6.3-5.9,10.9
			c1.1,3.8,4.6,6.3,8.4,6.3c0.8,0,1.7-0.1,2.5-0.4c16.3-4.9,27.9-23,29.5-46.3C322.2,617.8,318.6,613.6,313.8,613.3z"/>
		<path class="st2" d="M59.3,558.1c0-4.8-3.9-8.8-8.8-8.8s-8.8,3.9-8.8,8.8v37c0,4.5,0.5,27.3,11.1,37.1c1.7,1.6,3.8,2.3,6,2.3
			c2.4,0,4.7-1,6.4-2.8c3.3-3.5,3.1-9.1-0.5-12.4"/>
		<path class="st2" d="M50.5,542.9c4.8,0,8.8-3.9,8.8-8.8v-7.3c0-4.8-3.9-8.8-8.8-8.8s-8.8,3.9-8.8,8.8v7.3
			C41.8,538.9,45.7,542.9,50.5,542.9z"/>
		<path class="st2" d="M236.7,255.4c1,4,4.6,6.7,8.5,6.7c0.7,0,1.4-0.1,2.1-0.2c17.5-4.2,35.3-18.3,48.9-38.5
			c13.2-19.6,19-40.1,15.4-54.6c-1.1-4.7-5.9-7.6-10.6-6.5c-4.7,1.1-7.6,5.9-6.5,10.6c2.3,9.4-2.9,25.8-13,40.8
			c-11,16.4-25.4,28.1-38.5,31.2C238.4,245.9,235.5,250.7,236.7,255.4z"/>
		<path class="st2" d="M142.1,63.8c4.8,0,8.8-3.9,8.8-8.8c0-4.8-3.9-8.8-8.8-8.8c-16.2,0-35.7,15.4-48.5,29.8
			C75.9,96,65.7,119,65.7,139.2c0,4.8,3.9,8.8,8.8,8.8c4.9,0,8.8-3.9,8.8-8.8c0-16,8.5-34.7,23.5-51.5
			C120.5,72.2,135.2,63.8,142.1,63.8z"/>
		<path class="st2" d="M166.8,57.5c7.9-1.4,17.3-1.7,19.6-0.7c1.2,0.6,2.5,0.8,3.7,0.8c3.3,0,6.5-1.9,8-5.1c2-4.4,0.1-9.6-4.2-11.6
			c-8.5-4-25.1-1.5-30-0.7c-4.8,0.8-8,5.3-7.2,10.1C157.4,55.2,162,58.3,166.8,57.5z"/>
		<linearGradient id="SVGID_1_" gradientUnits="userSpaceOnUse" x1="108.4626" y1="542.4626" x2="328" y2="542.4626">
			<stop  offset="0" style="stop-color:#FFFFFF"/>
			<stop  offset="1" style="stop-color:#000000"/>
		</linearGradient>
		<path class="st3" d="M327.5,522.5c0,81-0.6,16.4-219,0"/>
	</g>
</g>
<rect x="73.3" y="562" class="st4" width="242.7" height="86"/>
<text transform="matrix(1 0 0 1 73.2627 621.6733)"><tspan x="0" y="0" class="st0 st5 st6">{</tspan><tspan x="23.9" y="0" class="st1 st5 st6">hired</tspan><tspan x="207.1" y="0" class="st0 st5 st6">}</tspan></text>
</svg>
